<?xml version="1.0" encoding="UTF-8" standalone="no"?>
<!-- Created with Inkscape (http://www.inkscape.org/) -->

<svg
   width="210mm"
   height="297mm"
   viewBox="0 0 210 297"
   version="1.1"
   id="svg5"
   xml:space="preserve"
   inkscape:version="1.2.2 (732a01da63, 2022-12-09)"
   sodipodi:docname="logo.svg"
   xmlns:inkscape="http://www.inkscape.org/namespaces/inkscape"
   xmlns:sodipodi="http://sodipodi.sourceforge.net/DTD/sodipodi-0.dtd"
   xmlns="http://www.w3.org/2000/svg"
   xmlns:svg="http://www.w3.org/2000/svg"><sodipodi:namedview
     id="namedview7"
     pagecolor="#ffffff"
     bordercolor="#000000"
     borderopacity="0.25"
     inkscape:showpageshadow="2"
     inkscape:pageopacity="0.0"
     inkscape:pagecheckerboard="0"
     inkscape:deskcolor="#d1d1d1"
     inkscape:document-units="mm"
     showgrid="false"
     inkscape:zoom="0.73851712"
     inkscape:cx="396.74097"
     inkscape:cy="561.93687"
     inkscape:window-width="1920"
     inkscape:window-height="1009"
     inkscape:window-x="3832"
     inkscape:window-y="-8"
     inkscape:window-maximized="1"
     inkscape:current-layer="layer1" /><defs
     id="defs2" /><g
     inkscape:label="Livello 1"
     inkscape:groupmode="layer"
     id="layer1"><path
       style="fill:#000000;stroke-width:0.264583"
       d="m 95.716334,213.43212 c -10.957785,-1.26401 -18.679124,-3.48868 -27.648959,-7.96621 -11.137366,-5.5595 -20.662097,-13.78822 -27.957953,-24.15375 -3.188282,-4.52973 -6.151473,-10.00988 -8.276024,-15.30575 -0.662512,-1.65144 -1.204566,-3.10996 -1.204566,-3.24115 0,-0.13118 0.579874,-0.23852 1.288608,-0.23852 h 1.288608 l 0.716791,2.05052 c 1.327417,3.79733 5.681456,11.94434 8.095282,15.1474 0.383825,0.50932 1.391303,1.87854 2.238838,3.04271 3.511391,4.82322 6.396717,7.74487 12.892016,13.05429 3.473662,2.83945 6.564241,4.79025 11.71215,7.3928 5.541719,2.80164 5.863008,2.94032 10.034709,4.33108 4.228463,1.40969 8.297104,2.43653 12.454875,3.14334 2.903035,0.49351 4.533315,0.58972 10.451041,0.61674 4.4163,0.0202 7.99077,-0.0955 9.65729,-0.31245 3.47645,-0.45259 7.54898,-1.25467 9.525,-1.87593 0.87313,-0.27451 2.00422,-0.5784 2.51354,-0.67532 6.1129,-1.16314 17.19425,-6.94733 25.26771,-13.18912 2.41405,-1.86635 9.54693,-8.89325 10.57123,-10.41415 0.37522,-0.55712 1.09777,-1.54873 1.60567,-2.20357 2.93556,-3.78483 3.80955,-4.99383 4.83265,-6.68509 1.56403,-2.58544 4.6067,-8.89535 5.48399,-11.37273 l 0.72612,-2.05052 h 1.02403 c 0.58269,0 1.02402,0.1284 1.02402,0.29793 0,0.47067 -1.80604,4.87068 -3.19489,7.78361 -5.2035,10.9137 -13.50732,20.97875 -23.26344,28.19761 -8.2342,6.09275 -18.55548,10.78317 -28.70729,13.0458 -5.66819,1.26333 -8.12827,1.52079 -15.34584,1.60602 -3.783539,0.0447 -7.295883,0.0332 -7.805206,-0.0256 z M 86.66824,192.14736 c -3.494652,-0.28758 -8.643044,-1.31247 -12.056815,-2.40015 -12.976513,-4.13451 -23.916442,-12.77422 -30.751995,-24.28612 -0.873911,-1.47177 -1.588931,-2.73409 -1.588931,-2.80515 0,-0.0711 0.446484,-0.12443 0.992187,-0.1186 0.9623,0.0103 1.032037,0.0785 2.315105,2.26501 1.721228,2.93319 4.987999,7.27896 7.09504,9.4385 2.14054,2.19388 6.663256,5.99295 9.044543,7.59739 2.656033,1.78956 9.58006,5.12592 12.85702,6.19519 7.366842,2.4038 17.561762,3.43509 22.72944,2.29926 l 0.926042,-0.20353 -1.322917,-0.40804 c -10.323704,-3.1842 -19.846045,-9.68949 -26.63877,-18.19854 -2.471978,-3.09658 -5.77269,-8.1662 -5.77269,-8.86638 0,-0.0888 0.433782,-0.12445 0.96396,-0.0793 0.881372,0.0751 1.060233,0.2408 2.087636,1.93421 1.668696,2.7504 5.567715,7.89231 7.391639,9.74785 2.069004,2.10488 6.379718,5.70836 8.739058,7.30529 1.779733,1.20462 7.588893,4.27348 9.789583,5.17164 3.533492,1.44211 9.034065,2.94517 9.881525,2.70017 0.24047,-0.0695 1.62785,-0.44249 3.08306,-0.82883 5.74748,-1.52587 11.58689,-4.45098 17.04322,-8.5374 2.37157,-1.77615 6.577,-5.59622 8.00655,-7.27288 2.04506,-2.39858 5.36457,-6.90888 6.301,-8.56133 1.01749,-1.79547 1.19084,-1.95909 1.88373,-1.77789 0.61651,0.16122 0.6178,0.12351 -0.0489,1.4303 -2.46574,4.83325 -7.9015,11.45378 -12.66874,15.43 -4.95371,4.13175 -11.82506,8.02939 -17.56063,9.96092 -1.87716,0.63216 -2.46561,0.92851 -2.11666,1.066 0.26582,0.10473 2.80503,0.19824 5.64269,0.2078 11.5546,0.0389 21.13321,-2.67595 29.95137,-8.48913 2.72485,-1.7963 3.27964,-2.2346 7.05979,-5.57751 3.49059,-3.08684 7.60803,-8.05045 10.20789,-12.30573 0.86428,-1.41459 1.12099,-1.65365 1.77579,-1.65365 0.88698,0 0.92907,-0.12594 -1.06107,3.175 -8.11974,13.46777 -21.94833,22.85328 -38.01189,25.79882 -3.79907,0.69662 -11.9834,0.82825 -16.5967,0.26691 -3.54088,-0.43084 -4.02821,-0.43405 -6.837135,-0.045 -3.919443,0.54287 -9.171062,0.71809 -12.734055,0.42489 z m -14.118276,-33.085 c -0.204258,-0.3305 -0.164396,-9.2094 0.04285,-9.54474 0.0748,-0.12102 1.676784,-0.22005 3.559966,-0.22005 3.228578,0 3.423968,0.0297 3.423968,0.52051 0,0.48233 -0.21826,0.52598 -2.976563,0.59531 l -2.976562,0.0748 v 1.45521 1.45521 l 1.984375,0.0669 c 2.502112,0.0844 3.175,0.23952 3.175,0.73185 0,0.40679 -0.438605,0.47278 -2.651591,0.39893 -0.658011,-0.022 -1.527175,0.0858 -1.931479,0.23956 -0.70095,0.2665 -0.731407,0.35022 -0.655699,1.80235 l 0.07939,1.52287 3.032773,0.0753 c 1.983775,0.0493 3.100017,0.18414 3.227181,0.38989 0.106921,0.17301 0.05186,0.40518 -0.122359,0.51593 -0.510532,0.32455 -7.005767,0.25258 -7.211256,-0.0799 z M 86.7176,158.49185 c -0.288358,-0.47295 -0.524735,-0.97458 -0.525277,-1.11475 -5.29e-4,-0.14016 -0.646435,-1.74751 -1.435314,-3.57187 -1.680904,-3.88727 -1.804906,-4.37536 -1.111578,-4.37536 0.386738,0 0.863925,0.84782 2.15388,3.82681 0.911392,2.10475 1.781524,3.8683 1.933628,3.919 0.152104,0.0507 0.393414,-0.30215 0.536244,-0.78411 0.307938,-1.03907 2.65329,-6.28792 3.022045,-6.76327 0.332851,-0.42906 0.985522,-0.42706 0.985522,0.003 0,0.18357 -0.547542,1.58255 -1.21676,3.10885 -1.219161,2.78058 -2.749381,6.4213 -2.751082,6.54542 -5.29e-4,0.0364 -0.240782,0.0661 -0.533964,0.0661 -0.31746,0 -0.745104,-0.34778 -1.057344,-0.85989 z m 9.380813,0.51987 c -0.07176,-0.18702 -0.09779,-2.41944 -0.05784,-4.96094 l 0.07264,-4.62091 3.526636,-0.074 c 3.260251,-0.0684 3.519841,-0.0384 3.436721,0.39688 -0.0778,0.40745 -0.48142,0.48866 -2.99747,0.60314 l -2.907554,0.13229 -0.08564,0.89651 c -0.191418,2.00384 -0.05353,2.1178 2.664862,2.20245 2.079432,0.0648 2.454952,0.14475 2.530382,0.53906 0.079,0.41308 -0.16685,0.46302 -2.27969,0.46302 -2.818119,0 -3.025502,0.15399 -2.91063,2.16134 l 0.08072,1.41054 3.24115,0.0743 c 3.02272,0.0693 3.24114,0.1094 3.24114,0.59531 0,0.49355 -0.19573,0.52102 -3.712467,0.52102 -2.78003,0 -3.745244,-0.0854 -3.842952,-0.34002 z m 16.104347,-3.3449 c -1.57321,-2.02671 -3.00921,-3.74938 -3.19111,-3.82816 -0.25533,-0.11057 -0.33073,0.67115 -0.33073,3.42865 0,2.97529 -0.0682,3.59804 -0.40829,3.72855 -0.22456,0.0862 -0.48554,0.0794 -0.57996,-0.015 -0.3199,-0.3199 -0.22517,-9.10358 0.10172,-9.43113 0.54234,-0.54345 1.25448,-0.008 2.79315,2.10191 1.97814,2.71196 4.21082,5.37502 4.37158,5.21427 0.0702,-0.0702 0.10937,-1.74383 0.087,-3.71912 -0.0353,-3.11639 0.017,-3.61359 0.39564,-3.75888 0.24668,-0.0947 0.53797,-0.007 0.67016,0.20185 0.26116,0.41244 0.33319,8.68716 0.0813,9.34347 -0.38436,1.00163 -1.18826,0.3436 -3.99048,-3.26641 z m 19.87899,3.3449 c -0.0718,-0.18702 -0.0978,-2.41944 -0.0579,-4.96094 0.0613,-3.89881 0.13466,-4.62091 0.46952,-4.62091 0.33262,0 0.41829,0.74965 0.52916,4.6302 0.0728,2.54662 0.0284,4.77904 -0.0985,4.96094 -0.29778,0.42665 -0.67661,0.42247 -0.84229,-0.009 z m -8.66321,-0.0918 c -0.10205,-0.10205 -0.18554,-2.07069 -0.18554,-4.37478 v -4.18923 h -1.5551 c -1.46071,0 -2.42285,-0.43178 -1.97038,-0.88424 0.0957,-0.0957 2.06798,-0.1741 4.38273,-0.1741 3.86533,0 4.20146,0.0378 4.12071,0.46303 -0.0697,0.36714 -0.44355,0.49041 -1.80533,0.59531 l -1.71742,0.13229 -0.13229,4.23017 c -0.1107,3.53966 -0.19918,4.24297 -0.54207,4.30862 -0.22538,0.0432 -0.49327,-0.005 -0.59531,-0.10707 z M 10.785081,154.72833 c 0,-0.069 0.351274,-0.30715 0.780611,-0.52917 0.685559,-0.35451 4.156977,-0.40232 28.508855,-0.39258 27.472757,0.011 27.719711,0.0158 26.802203,0.51808 -0.895419,0.49022 -1.83814,0.50735 -28.508856,0.51807 -15.170547,0.006 -27.582813,-0.0454 -27.582813,-0.1144 z m 127.224809,-1.22205 c -0.13969,-0.0863 0.26258,-0.3542 0.89393,-0.59531 1.04171,-0.39783 3.6609,-0.4384 28.30939,-0.4384 15.44484,0 27.22383,0.10089 27.30602,0.23388 0.49017,0.7931 -1.54739,0.85724 -28.80746,0.90682 -15.09635,0.0275 -27.5622,-0.0207 -27.70188,-0.10699 z m -44.542515,-14.49252 -2.116666,-0.16723 v -10.98021 -10.9802 l 1.124479,-0.0814 c 0.778306,-0.0563 1.135406,0.0251 1.159973,0.26458 0.01953,0.19027 0.06521,4.81079 0.101521,10.26782 0.03632,5.45703 0.07988,10.0707 0.0968,10.2526 0.02347,0.25223 1.255446,0.33073 5.190147,0.33073 4.982981,0 5.159371,0.0181 5.159371,0.52917 0,0.48114 -0.17639,0.52916 -1.94373,0.52916 -1.06905,0 -3.003811,0.0455 -4.299475,0.10108 -1.295662,0.0556 -3.30825,0.0258 -4.472417,-0.0661 z m 16.715825,-0.10108 c -0.41417,-0.30376 -0.44526,-1.21532 -0.3813,-11.17865 l 0.0696,-10.84791 6.81302,-0.0706 c 6.67899,-0.0692 6.81302,-0.0601 6.81302,0.46302 0,0.5182 -0.16086,0.53364 -5.56249,0.53364 h -5.5625 l 0.0724,4.56406 0.0724,4.56406 4.22673,0.0816 c 2.3247,0.0449 4.27418,0.12903 4.33216,0.18702 0.058,0.058 0.0349,0.28916 -0.0512,0.51372 -0.13219,0.3445 -0.81935,0.40829 -4.39831,0.40829 h -4.24164 v 4.89479 4.89479 h 5.56456 c 4.8581,0 5.58519,0.0538 5.72709,0.42358 0.0894,0.23297 -0.004,0.5288 -0.20674,0.65741 -0.60699,0.38434 -12.75235,0.30317 -13.28679,-0.0888 z m 22.51112,0.15171 c -2.12432,-0.0975 -2.32422,-0.15374 -2.45487,-0.69114 -0.0782,-0.32178 -0.10909,-5.28802 -0.0686,-11.03609 l 0.0736,-10.45104 4.60653,-0.0726 c 5.12267,-0.0807 6.762,0.20442 8.21767,1.42928 1.16185,0.97764 1.63339,2.04297 1.63339,3.69028 0,1.8483 -0.75141,3.1989 -2.33823,4.2028 l -1.20862,0.76463 1.26609,0.61104 c 1.65243,0.79749 2.21356,1.31861 2.80369,2.60371 0.60304,1.31325 0.645,3.76465 0.0873,5.10173 -1.35378,3.24579 -4.54188,4.21788 -12.61798,3.84738 z m 7.90352,-1.74509 c 2.34656,-1.24111 3.32322,-4.57581 2.07134,-7.07235 -0.47485,-0.94695 -1.18125,-1.51747 -2.42011,-1.95456 -1.15627,-0.40796 -6.37067,-0.79939 -7.07066,-0.53077 -0.36288,0.13924 -0.42041,0.82126 -0.42041,4.98371 0,2.65231 0.0893,4.91383 0.19844,5.0256 0.10914,0.11177 1.68672,0.15446 3.50573,0.0949 2.40024,-0.0786 3.53448,-0.22852 4.13567,-0.54649 z m -1.30863,-11.05731 c 2.4581,-0.92873 3.5932,-4.30168 2.24117,-6.65962 -0.74644,-1.30179 -1.92036,-1.65792 -5.46509,-1.65792 h -3.175 l -0.0727,4.29948 -0.0727,4.29948 h 2.89975 c 1.59486,0 3.23492,-0.12664 3.64457,-0.28142 z m 23.43329,12.76464 c -0.35096,-0.0499 -0.65236,-0.32106 -0.73507,-0.66146 -0.0771,-0.31733 -0.10707,-5.27994 -0.0666,-11.02801 l 0.0736,-10.45104 h 1.19063 1.19062 l 0.13229,10.45104 0.13229,10.45104 5.26997,0.13229 c 3.88299,0.0975 5.29888,0.2193 5.37982,0.46288 0.0604,0.18183 -0.0489,0.387 -0.24289,0.45594 -0.40936,0.14548 -11.43902,0.31311 -12.32469,0.18732 z M 11.705643,138.66308 c -0.07311,-0.19053 -0.101788,-5.16829 -0.06372,-11.06169 l 0.06921,-10.71527 h 1.190625 1.190625 v 10.9802 10.98021 l -1.1269,0.0815 c -0.747094,0.054 -1.171702,-0.0353 -1.25983,-0.26493 z m 10.087955,-0.10277 c -0.209715,-0.54651 -0.209715,-20.84146 0,-21.38797 0.107349,-0.27975 0.493035,-0.41852 1.163216,-0.41852 1.350619,0 0.951238,-0.47438 8.57589,10.18646 3.535648,4.94357 5.297943,7.27604 5.497394,7.27604 0.113347,0 0.237479,-3.89929 0.275849,-8.6651 0.06815,-8.46546 0.08195,-8.6651 0.598927,-8.6651 0.520665,0 0.529166,0.17639 0.529166,10.9802 v 10.98021 h -0.786476 c -0.657019,0 -0.949302,-0.23954 -1.775646,-1.45521 -0.544041,-0.80036 -1.440283,-2.07624 -1.991648,-2.83528 -0.551363,-0.75905 -1.806551,-2.48545 -2.789306,-3.83646 -0.982753,-1.35101 -3.066347,-4.23485 -4.630209,-6.40854 -1.563859,-2.17368 -2.99221,-3.99931 -3.174111,-4.05694 -0.260202,-0.0824 -0.330729,1.83516 -0.330729,8.99247 0,6.72287 -0.08287,9.18012 -0.3175,9.41475 -0.426744,0.42675 -0.652664,0.39974 -0.844817,-0.10101 z m 24.317807,-0.1494 c -0.08342,-0.34249 -0.118552,-5.32568 -0.07806,-11.07375 l 0.07362,-10.45104 h 5.291667 c 4.966883,0 5.397222,0.0397 7.011459,0.64673 2.458609,0.92458 4.685247,3.19016 5.475197,5.57097 0.771811,2.32615 0.936006,4.05143 0.60714,6.37947 -0.556649,3.94049 -2.489581,6.75111 -5.751891,8.36367 l -2.022219,0.99957 -5.227611,0.0935 -5.227614,0.0935 z m 10.843469,-1.23924 c 3.009392,-1.3705 4.651431,-4.18184 5.0487,-8.64389 0.326403,-3.6661 -0.745035,-6.88319 -2.934187,-8.81016 -1.77691,-1.5641 -3.041073,-1.90546 -7.056437,-1.90546 h -3.392451 v 10.08012 10.08013 l 3.505729,-0.0991 c 2.947985,-0.0834 3.7162,-0.19499 4.828646,-0.70161 z m 14.011556,1.47608 c -0.06988,-0.1821 -0.09591,-5.15296 -0.05784,-11.04636 l 0.0692,-10.71527 1.322917,-0.1323 c 0.727604,-0.0728 3.763698,-0.0728 6.746875,0 4.586111,0.11186 5.423959,0.1936 5.423959,0.52917 0,0.33557 -0.837848,0.41731 -5.423959,0.52917 l -5.423958,0.13229 -0.07254,4.43177 -0.07254,4.43177 h 3.924578 c 2.874642,0 4.055097,0.0954 4.412446,0.35674 1.049501,0.76741 0.204702,0.96618 -4.106511,0.96618 h -4.217718 v 4.88942 4.88942 l 5.486654,0.0715 c 4.982001,0.0649 5.494841,0.1141 5.57565,0.53453 0.08289,0.43124 -0.376087,0.46302 -6.685582,0.46302 -5.17938,0 -6.804496,-0.078 -6.901625,-0.33107 z m 81.22709,0 c -0.0699,-0.1821 -0.0959,-5.15296 -0.0579,-11.04636 l 0.0692,-10.71527 1.12448,-0.0814 c 0.61846,-0.0448 1.12795,0.0148 1.1322,0.13229 0.014,0.38733 0.0196,21.37291 0.006,21.71105 -0.0181,0.44313 -2.10378,0.44281 -2.27383,-2.7e-4 z m 29.15176,0.12513 c -0.20547,-0.33247 -0.51702,-20.59039 -0.32822,-21.3426 l 0.17205,-0.68552 6.67455,0.0707 c 5.72513,0.0606 6.67455,0.12713 6.67455,0.46755 0,0.33557 -0.83785,0.41731 -5.42396,0.52917 l -5.42396,0.13229 v 4.36562 4.36563 l 4.0081,0.0729 c 3.19533,0.0581 4.07565,0.15428 4.34119,0.47424 0.20543,0.24753 0.23874,0.49567 0.0869,0.64749 -0.13539,0.13539 -2.08892,0.27917 -4.34119,0.31952 l -4.09503,0.0734 v 4.7625 4.7625 l 5.49011,0.0715 c 5.27088,0.0687 5.4901,0.0924 5.4901,0.59532 0,0.508 -0.19893,0.52379 -6.59896,0.52379 -3.62944,0 -6.65625,-0.0927 -6.72626,-0.20594 z M 30.857223,112.05747 C 34.896802,101.04248 41.134185,91.363859 49.322412,83.404813 62.564951,70.532924 79.414986,63.09656 97.874432,61.977534 c 21.312538,-1.291987 41.946648,6.36968 57.312708,21.280822 8.3472,8.100084 14.88553,18.172084 18.56635,28.600644 l 0.7938,2.24899 h -1.02917 -1.02916 l -0.72068,-2.18281 c -0.80175,-2.42838 -3.02134,-7.13421 -4.54563,-9.63736 -0.54717,-0.89854 -1.4057,-2.327291 -1.90783,-3.175001 -3.10566,-5.242991 -4.76152,-7.359004 -9.59145,-12.256913 -4.29354,-4.353967 -5.76691,-5.727417 -7.09037,-6.60953 -0.50932,-0.339474 -1.34276,-0.992807 -1.85208,-1.451848 -3.36063,-3.028871 -15.76136,-9.73446 -19.88683,-10.753633 -1.21324,-0.299722 -3.09885,-0.819631 -4.19026,-1.155356 -1.0914,-0.335722 -3.53218,-0.935151 -5.42395,-1.332063 -1.89177,-0.396915 -3.91584,-0.825566 -4.49792,-0.952564 -3.61985,-0.789768 -14.192143,-0.777274 -18.91771,0.02236 -0.800364,0.135432 -2.407708,0.379888 -3.571875,0.543237 -3.155058,0.442695 -9.942994,2.204299 -13.096875,3.398898 -8.966941,3.39642 -17.706928,8.723517 -24.185876,14.741494 -5.37627,4.993754 -9.82581,10.316075 -13.442937,16.07978 -1.655183,2.637449 -5.122201,9.696979 -6.15973,12.542429 l -0.79375,2.17688 -1.25399,10e-4 -1.25399,0.001 0.751996,-2.05052 z m 10.880042,0.47108 c 4.398312,-8.71301 10.755348,-15.923909 18.789484,-21.31325 6.896918,-4.626491 14.986615,-7.735678 23.151043,-8.897853 3.141218,-0.44714 11.426822,-0.447333 15.08125,-2.64e-4 2.575698,0.315039 3.169068,0.30621 5.159378,-0.07676 5.92646,-1.140349 13.97331,-1.041138 20.51378,0.252918 16.42933,3.250608 30.97298,14.28626 38.46493,29.187009 0.59494,1.18327 1.08171,2.21357 1.08171,2.28956 0,0.076 -0.35719,0.13817 -0.79375,0.13817 -0.43723,0 -0.79375,-0.14141 -0.79375,-0.31483 0,-0.17315 -0.50347,-1.15541 -1.11881,-2.18281 -1.84883,-3.08695 -4.24243,-6.88637 -4.42717,-7.02745 -0.0953,-0.0728 -0.36696,-0.41563 -0.60373,-0.76193 -1.71489,-2.5082 -8.63366,-9.010629 -11.9347,-11.216518 -4.32902,-2.892827 -10.58307,-6.119485 -12.94316,-6.677764 -0.90666,-0.214471 -2.24379,-0.57427 -2.97139,-0.799552 -2.34085,-0.724778 -7.33604,-1.713833 -9.95507,-1.971119 -2.72883,-0.268076 -11.06049,0.07532 -11.79455,0.486124 -0.30276,0.169431 0.0944,0.384588 1.49518,0.810072 6.13496,1.863439 13.12712,5.714987 18.46662,10.172121 5.66555,4.729308 10.45742,10.678896 13.68524,16.991606 l 1.20654,2.35967 -0.72341,0.0893 c -0.39788,0.0491 -0.7633,-0.0303 -0.81205,-0.17654 -0.14924,-0.44772 -3.75025,-6.40493 -4.85525,-8.03211 -1.67317,-2.46386 -6.80092,-7.845558 -9.78074,-10.265146 -2.29933,-1.867027 -4.01795,-3.036668 -8.17731,-5.565225 -1.91062,-1.16151 -7.13528,-3.454411 -8.73125,-3.83181 -1.0914,-0.258085 -2.16532,-0.561496 -2.38649,-0.674245 -0.22117,-0.11275 -1.32727,-0.396095 -2.458,-0.629653 -1.87269,-0.386816 -2.2023,-0.387763 -3.698926,-0.01064 -5.818272,1.466119 -12.183404,4.505341 -18.092926,8.639003 -2.173713,1.520497 -6.593258,5.633318 -8.949259,8.328156 -2.315919,2.64901 -5.559002,7.43568 -6.917931,10.21062 -0.993418,2.02856 -1.015076,2.05052 -2.022573,2.05052 h -1.018399 l 1.546473,-2.98 c 6.172386,-11.893928 16.465675,-21.063971 29.31366,-26.114825 1.018646,-0.400455 2.179505,-0.80677 2.579687,-0.902928 0.400183,-0.09615 0.727604,-0.28875 0.727604,-0.427992 0,-0.404882 -9.797693,-0.112393 -13.229167,0.39493 -11.024674,1.629926 -20.790945,6.289675 -28.656802,13.672931 -4.895554,4.595184 -8.680969,9.458724 -11.235992,14.436104 -0.958844,1.86791 -1.012105,1.91954 -1.981329,1.92064 l -0.995995,10e-4 0.7973,-1.57944 z"
       id="path179" /></g></svg>
